<?xml version="1.0" encoding="utf-8"?>
<!--  http://www.rosybit.com, ab.roshan39@gmail.com  -->
<svg version="1.1" id="Layer_1" xmlns="http://www.w3.org/2000/svg" xmlns:xlink="http://www.w3.org/1999/xlink" x="0px" y="0px"
	 width="566.93px" height="566.93px" viewBox="0 0 566.93 566.93" style="enable-background:new 0 0 566.93 566.93;"
	 xml:space="preserve">
<style type="text/css">
	.st0{fill:#FFFFFF;}
</style>
<g>
	<path d="M157.64,541.32h251.66c72.92,0,132.03-59.11,132.03-132.03V157.64c0-72.92-59.11-132.03-132.03-132.03H157.64
		c-72.92,0-132.03,59.11-132.03,132.03v251.66C25.61,482.21,84.72,541.32,157.64,541.32z"/>
	<path class="st0" d="M436.86,215.03c-2.77-4.35-7.21-7.61-13.34-9.78h-54.24l8.6-69.07v-4.15c-0.2-3.55-0.79-6.62-1.78-9.19
		c-0.79-1.78-1.68-3.36-2.67-4.74c-0.2,0-0.29-0.1-0.29-0.29l0,0c-3.56-4.55-7.51-7.11-11.86-7.71c-4.35-0.79-8.69,0.49-13.04,3.85
		c-4.35,3.36-7.31,8.99-8.89,16.89l-9.49,74.4h-80.33l8.6-68.77c0.4-7.71-1.19-13.83-4.74-18.38c-3.56-4.35-7.51-6.91-11.86-7.71
		c-4.35-0.59-8.69,0.79-13.04,4.15c-4.35,3.36-7.31,8.89-8.89,16.6l-9.19,74.1h-47.72c-7.11,0.4-12.45,2.67-16.01,6.82
		c-3.76,4.35-5.63,9.09-5.63,14.23c-0.4,5.14,1.09,9.88,4.45,14.23c3.36,4.54,8.6,7.31,15.71,8.3h44.17l-8,66.69h-49.8
		c-6.72,0.4-11.96,2.77-15.71,7.11c-3.56,4.15-5.53,8.79-5.93,13.93c0,5.14,1.68,9.98,5.04,14.52c3.36,4.35,8.49,7.11,15.41,8.3
		h45.65l-9.19,74.99c0.59,7.11,2.57,12.55,5.93,16.3c3.36,3.76,7.02,5.83,10.97,6.23c4.15,0.59,8.2-0.59,12.15-3.55
		c4.15-2.77,7.32-7.32,9.49-13.64l10.08-80.33h80.33l-8.89,74.99c0.59,7.11,2.47,12.55,5.63,16.3c3.36,3.76,7.11,5.83,11.26,6.23
		c3.96,0.59,7.91-0.59,11.86-3.55c4.35-2.77,7.51-7.32,9.49-13.64l9.78-80.33h58.4c5.93-1.58,10.57-4.35,13.93-8.3
		c2.96-4.15,4.55-8.49,4.74-13.04c0.2-4.35-1.09-8.69-3.85-13.04c-2.96-4.15-7.41-7.31-13.34-9.49h-54.54l8-66.4v-0.3h57.8
		c6.13-1.38,10.77-4.15,13.93-8.3c3.16-3.96,4.84-8.2,5.04-12.75C441.2,223.42,439.82,219.18,436.86,215.03z M317.1,315.52h-80.33
		l7.41-66.69h80.33h0L317.1,315.52z"/>
</g>
</svg>
